<?xml version="1.0" encoding="utf-8"?>
<!-- Generator: Adobe Illustrator 24.0.0, SVG Export Plug-In . SVG Version: 6.00 Build 0)  -->
<svg version="1.1" id="Capa_1" xmlns="http://www.w3.org/2000/svg" xmlns:xlink="http://www.w3.org/1999/xlink" x="0px" y="0px"
	 viewBox="0 0 110 110" style="enable-background:new 0 0 110 110;" xml:space="preserve">
<style type="text/css">
	.st0{fill:#1AE537;}
	.st1{fill:#FFFFFF;}
</style>
<g>
	<path class="st0" d="M55.2,95.9L55.2,95.9c-7.4,0-14.7-2-21.1-5.8l-1.5-0.9L17,93.4l4.2-15.3l-1-1.6c-4.1-6.6-6.3-14.2-6.3-22
		c0-22.8,18.6-41.3,41.4-41.3c11,0,21.4,4.3,29.2,12.1c7.8,7.8,12.1,18.2,12.1,29.2C96.5,77.4,78,95.9,55.2,95.9z"/>
	<g id="logo">
		<g>
			<g>
				<path class="st1" d="M88.7,21.1C79.8,12.2,67.9,7.2,55.2,7.2C29.1,7.2,7.9,28.5,7.9,54.6c0,8.3,2.2,16.5,6.3,23.7l-6.7,24.5
					l25.1-6.6c6.9,3.8,14.7,5.8,22.6,5.8h0c0,0,0,0,0,0c26.1,0,47.3-21.2,47.3-47.3C102.6,42,97.6,30.1,88.7,21.1z M55.2,93.9
					L55.2,93.9c-7.1,0-14-1.9-20-5.5l-1.4-0.9l-14.9,3.9l4-14.5l-0.9-1.5c-3.9-6.3-6-13.5-6-20.9c0-21.7,17.7-39.3,39.4-39.3
					c10.5,0,20.4,4.1,27.8,11.5c7.4,7.4,11.5,17.3,11.5,27.8C94.5,76.3,76.9,93.9,55.2,93.9z M76.8,64.5c-1.2-0.6-7-3.5-8.1-3.8
					c-1.1-0.4-1.9-0.6-2.7,0.6c-0.8,1.2-3.1,3.8-3.7,4.6c-0.7,0.8-1.4,0.9-2.6,0.3c-1.2-0.6-5-1.8-9.5-5.9c-3.5-3.1-5.9-7-6.6-8.2
					c-0.7-1.2-0.1-1.8,0.5-2.4c0.5-0.5,1.2-1.4,1.8-2.1c0.6-0.7,0.8-1.2,1.2-2c0.4-0.8,0.2-1.5-0.1-2.1c-0.3-0.6-2.7-6.4-3.6-8.8
					c-1-2.3-1.9-2-2.7-2c-0.7,0-1.5,0-2.3,0c-0.8,0-2.1,0.3-3.2,1.5c-1.1,1.2-4.1,4-4.1,9.9c0,5.8,4.2,11.4,4.8,12.2
					c0.6,0.8,8.3,12.7,20.2,17.9c2.8,1.2,5,1.9,6.7,2.5c2.8,0.9,5.4,0.8,7.5,0.5c2.3-0.3,7-2.9,8-5.6c1-2.8,1-5.1,0.7-5.6
					C78.8,65.4,78,65.1,76.8,64.5z"/>
			</g>
		</g>
	</g>
</g>
</svg>
